<?xml version="1.0" encoding="UTF-8"?>
<svg version="1.1" xmlns="http://www.w3.org/2000/svg" width="792" height="315">
<path d="M0 0 C261.36 0 522.72 0 792 0 C792 103.95 792 207.9 792 315 C530.64 315 269.28 315 0 315 C0 211.05 0 107.1 0 0 Z " fill="#FEFEFE" transform="translate(0,0)"/>
<path d="M0 0 C15.54719287 8.44264333 31.04681491 16.99089778 46.25634766 26.03027344 C53.12438813 30.10155991 60.06314755 34.04769238 67 38 C75.08446481 42.60834126 83.16339123 47.22448089 91.1875 51.9375 C91.88166016 52.34419922 92.57582031 52.75089844 93.29101562 53.16992188 C97.87383011 55.87383011 97.87383011 55.87383011 99 57 C99.14929449 58.97940416 99.22869449 60.96409292 99.28175354 62.94841003 C99.33584129 64.88903572 99.33584129 64.88903572 99.39102173 66.86886597 C99.4257654 68.31646037 99.46020956 69.76406199 99.49438477 71.21166992 C99.53336755 72.72603115 99.57245801 74.24038962 99.61164856 75.75474548 C99.95851705 89.62669326 100.16216546 103.5011896 100.32562351 117.37638378 C100.43814358 126.70314702 100.59554361 136.02473627 100.86547852 145.34838867 C101.10096088 153.48379004 101.25062335 161.61554447 101.29879421 169.7542904 C101.32710438 174.0604905 101.39628765 178.35671658 101.56808662 182.6597805 C102.57141624 208.80879462 102.57141624 208.80879462 96.56049728 215.86285782 C90.46937822 220.82414232 81.18783616 227 73 227 C73.01881289 226.21499839 73.03762577 225.42999678 73.05700874 224.62120724 C73.50705213 205.46442128 73.81126587 186.31030179 73.95596504 167.1487112 C74.0294147 157.88136044 74.1510184 148.61945098 74.38867188 139.35473633 C74.59585608 131.27296249 74.70996228 123.19595252 74.71533382 115.11143547 C74.72135029 110.83324581 74.77185082 106.56666897 74.9341774 102.29131889 C76.14358461 84.65163799 76.14358461 84.65163799 69.5082016 69.15459061 C63.36441805 64.27935179 56.63111557 61.22332655 49.36016464 58.40042305 C43.92573373 56.13550358 39.01117473 53.06611448 34 50 C32.02836191 48.84239323 30.05466169 47.68828525 28.078125 46.5390625 C27.08876953 45.96188477 26.09941406 45.38470703 25.08007812 44.79003906 C19.64757831 41.63285068 14.19716993 38.50678321 8.75 35.375 C-2.24724704 29.04866209 -13.15319432 22.58064351 -24 16 C-19.38539001 12.06372812 -14.32098738 8.95029489 -9.1875 5.75 C-7.86202148 4.91855469 -7.86202148 4.91855469 -6.50976562 4.0703125 C-4.34155017 2.71078281 -2.17160415 1.35410776 0 0 Z " fill="#067375" transform="translate(116,54)"/>
<path d="M0 0 C8.58 0 17.16 0 26 0 C26 33 26 66 26 100 C19.4 100 12.8 100 6 100 C5.97661423 94.618675 5.95683959 89.23753721 5.94506836 83.85620117 C5.94014403 82.03848665 5.93340458 80.22077584 5.92456055 78.40307617 C5.8543198 63.55748741 6.4056988 48.85753003 7 34 C0.73 55.78 -5.54 77.56 -12 100 C-16.62 100 -21.24 100 -26 100 C-28.35993183 93.07158617 -30.48732453 86.09560059 -32.5390625 79.0703125 C-32.86538666 77.95816376 -33.19171082 76.84601501 -33.52792358 75.70016479 C-34.5618353 72.17556289 -35.5935291 68.6503169 -36.625 65.125 C-37.66399794 61.57837429 -38.70346393 58.03188668 -39.74349976 54.48556519 C-40.388579 52.28551115 -41.03299029 50.08526114 -41.67666626 47.88479614 C-41.96721893 46.89301361 -42.25777161 45.90123108 -42.55712891 44.87939453 C-42.81233307 44.00719269 -43.06753723 43.13499084 -43.33047485 42.23635864 C-43.85590729 40.48130078 -44.42066354 38.73800938 -45 37 C-45 57.79 -45 78.58 -45 100 C-51.27 100 -57.54 100 -64 100 C-64 67.33 -64 34.66 -64 1 C-55.42 1 -46.84 1 -38 1 C-37.13117188 4.29355469 -36.26234375 7.58710937 -35.3671875 10.98046875 C-34.50375791 14.24761042 -33.63960651 17.51456039 -32.77539062 20.78149414 C-32.18512172 23.01436875 -31.59557757 25.2474351 -31.00683594 27.48071289 C-27.16892254 42.03662164 -23.19922022 56.54399771 -19 71 C-18.84823807 70.40325974 -18.69647614 69.80651947 -18.54011536 69.19169617 C-16.93450114 62.87894198 -15.32777693 56.566471 -13.72045898 50.25415039 C-13.12383043 47.91047022 -12.52746816 45.56672225 -11.93139648 43.22290039 C-9.96211084 35.47991437 -7.98570558 27.73879178 -6 20 C-5.74587341 19.00808655 -5.49174683 18.0161731 -5.22991943 16.99420166 C-4.53623522 14.29324388 -3.83754608 11.59364312 -3.13671875 8.89453125 C-2.93287064 8.09947678 -2.72902252 7.3044223 -2.51899719 6.48527527 C-1.11541771 1.11541771 -1.11541771 1.11541771 0 0 Z " fill="#373737" transform="translate(543,97)"/>
<path d="M0 0 C0.81210938 0.45068848 1.62421875 0.90137695 2.4609375 1.36572266 C3.73481323 2.04973145 3.73481323 2.04973145 5.03442383 2.74755859 C5.94474365 3.27639648 6.85506348 3.80523437 7.79296875 4.35009766 C8.82599121 4.94814209 9.85901367 5.54618652 10.92333984 6.16235352 C12.02887207 6.80696533 13.1344043 7.45157715 14.2734375 8.11572266 C15.44205793 8.79381789 16.61084318 9.47162915 17.77978516 10.14916992 C26.28485742 15.08283593 34.77052587 20.04987629 43.2590332 25.01196289 C51.13585823 29.60930895 59.04203826 34.15388671 66.9609375 38.67822266 C68.62358643 39.62846313 68.62358643 39.62846313 70.31982422 40.59790039 C79.01332183 45.55742942 87.73719419 50.45861704 96.4609375 55.36572266 C96.4609375 100.90572266 96.4609375 146.44572266 96.4609375 193.36572266 C92.8309375 191.38572266 89.2009375 189.40572266 85.4609375 187.36572266 C84.10483871 186.87271164 82.74873993 186.37970062 81.35154724 185.87174988 C77.31749543 184.289685 74.06310412 182.92443003 71.4609375 179.36572266 C69.3880967 172.82319788 70.12950015 165.6731968 70.4985218 158.91607094 C70.68610035 155.36910606 70.77689839 151.83128112 70.84165955 148.28007507 C71.04248752 138.19770994 71.4136484 128.12407816 71.85424805 118.04956055 C72.11764729 111.87402674 72.26698377 105.70372606 72.35015678 99.52327538 C72.40532887 97.17965147 72.50459405 94.83660968 72.65001106 92.49685097 C73.41866042 81.6419004 73.41866042 81.6419004 70.4609375 71.36572266 C64.77953306 65.6814702 57.45126461 62.53094894 50.11819458 59.49576759 C46.83809782 58.10084922 43.91093731 56.42760568 40.87890625 54.56103516 C39.56696289 53.79243164 39.56696289 53.79243164 38.22851562 53.00830078 C37.37708984 52.5075 36.52566406 52.00669922 35.6484375 51.49072266 C27.27073237 46.58386029 18.87427599 41.71122885 10.4609375 36.86572266 C8.30589744 35.62239277 6.15094947 34.37890326 3.99609375 33.13525391 C0.08358789 30.87719933 -3.83114402 28.62311029 -7.7484436 26.37338257 C-10.53527078 24.77091398 -13.31806491 23.16146571 -16.1015625 21.55322266 C-17.13732422 20.96025391 -18.17308594 20.36728516 -19.24023438 19.75634766 C-20.18576172 19.20849609 -21.13128906 18.66064453 -22.10546875 18.09619141 C-22.94021729 17.61561279 -23.77496582 17.13503418 -24.63500977 16.63989258 C-26.5390625 15.36572266 -26.5390625 15.36572266 -27.5390625 13.36572266 C-24.08355688 11.31183866 -20.61496081 9.28239288 -17.13256836 7.27441406 C-15.95035447 6.58826004 -14.77189904 5.89558691 -13.59741211 5.19628906 C-11.90704351 4.19135957 -10.20168914 3.2117736 -8.49609375 2.23291016 C-7.47491455 1.63591309 -6.45373535 1.03891602 -5.40161133 0.42382812 C-2.5390625 -0.63427734 -2.5390625 -0.63427734 0 0 Z " fill="#4D7875" transform="translate(75.5390625,85.63427734375)"/>
<path d="M0 0 C2.13062783 1.82252234 2.72330128 3.73887837 3.59375 6.36328125 C4.17382812 5.88117188 4.75390625 5.3990625 5.3515625 4.90234375 C12.17184569 -0.61240668 17.25655422 -3.15325324 26.12890625 -2.953125 C31.11926881 -2.31252378 34.29975522 0.06928647 37.84375 3.61328125 C42.90354892 11.56439384 43.00286082 18.62557227 42.88671875 27.83203125 C42.88247391 29.10808228 42.87822906 30.3841333 42.87385559 31.69885254 C42.85996934 35.06590019 42.83308995 38.43232001 42.79974365 41.79919434 C42.76887035 45.24498108 42.75531367 48.6908331 42.74023438 52.13671875 C42.70724893 58.87909982 42.65550894 65.62110483 42.59375 72.36328125 C36.65375 72.36328125 30.71375 72.36328125 24.59375 72.36328125 C24.564021 70.14629517 24.564021 70.14629517 24.53369141 67.88452148 C24.45744031 62.38467796 24.3687528 56.88509226 24.27636719 51.38549805 C24.238158 49.0082713 24.20329125 46.63098833 24.171875 44.25366211 C24.12604961 40.83036244 24.06808332 37.40744714 24.0078125 33.984375 C23.99626129 32.92681503 23.98471008 31.86925507 23.97280884 30.77964783 C23.86341133 25.27109797 23.42307532 20.57204441 21.59375 15.36328125 C16.64375 14.37328125 16.64375 14.37328125 11.59375 13.36328125 C10.93375 14.68328125 10.27375 16.00328125 9.59375 17.36328125 C9.09875 17.85828125 9.09875 17.85828125 8.59375 18.36328125 C8.47075834 20.05037472 8.41589742 21.74249028 8.38842773 23.43383789 C8.36848251 24.51488297 8.34853729 25.59592804 8.32798767 26.70973206 C8.30291893 28.47376625 8.30291893 28.47376625 8.27734375 30.2734375 C8.25656265 31.47060898 8.23578156 32.66778046 8.21437073 33.90122986 C8.14874721 37.74268612 8.08993097 41.58421326 8.03125 45.42578125 C7.98807695 48.02279392 7.94446307 50.61979931 7.90039062 53.21679688 C7.7930528 59.59888485 7.69182182 65.98104443 7.59375 72.36328125 C1.32375 72.36328125 -4.94625 72.36328125 -11.40625 72.36328125 C-11.42083252 70.7484082 -11.43541504 69.13353516 -11.45043945 67.46972656 C-11.50837161 61.48349766 -11.58560544 55.49764691 -11.66870117 49.51171875 C-11.70197432 46.91998426 -11.72999871 44.3281769 -11.75268555 41.73632812 C-11.78618675 38.01270461 -11.83850223 34.28975044 -11.89453125 30.56640625 C-11.90092117 29.40586731 -11.9073111 28.24532837 -11.91389465 27.04962158 C-11.94358589 25.42839386 -11.94358589 25.42839386 -11.97387695 23.77441406 C-11.99053154 22.34878143 -11.99053154 22.34878143 -12.00752258 20.89434814 C-12.48009273 17.89453772 -13.26764779 16.50356553 -15.40625 14.36328125 C-19.00246191 13.90558155 -21.37372796 13.80161685 -24.5947876 15.55378723 C-27.02858798 17.98494298 -26.92098709 19.3483084 -26.95214844 22.75268555 C-26.98172638 24.40405769 -26.98172638 24.40405769 -27.01190186 26.08879089 C-27.01313049 27.2763649 -27.01435913 28.4639389 -27.015625 29.6875 C-27.03216125 30.90403763 -27.04869751 32.12057526 -27.06573486 33.37397766 C-27.11438826 37.26629599 -27.13562527 41.15822314 -27.15625 45.05078125 C-27.18439501 47.68686882 -27.21432034 50.32293804 -27.24609375 52.95898438 C-27.32015251 59.42705116 -27.36962162 65.89489855 -27.40625 72.36328125 C-33.67625 72.36328125 -39.94625 72.36328125 -46.40625 72.36328125 C-46.40625 47.94328125 -46.40625 23.52328125 -46.40625 -1.63671875 C-40.46625 -1.63671875 -34.52625 -1.63671875 -28.40625 -1.63671875 C-28.07625 0.34328125 -27.74625 2.32328125 -27.40625 4.36328125 C-26.519375 3.57953125 -25.6325 2.79578125 -24.71875 1.98828125 C-17.18871068 -4.17901313 -8.58892225 -4.27686087 0 0 Z " fill="#343434" transform="translate(368.40625,124.63671875)"/>
<path d="M0 0 C6.27 0 12.54 0 19 0 C25.06079231 19.07123377 31.11728489 38.14382682 37.16647148 57.21874523 C38.45278849 61.27488811 39.73966679 65.33085242 41.02685547 69.38671875 C42.37366072 73.63159055 43.7176675 77.87733425 45.05844116 82.12411499 C45.51790893 83.57806558 45.97837184 85.03170208 46.43984985 86.48501587 C47.06154938 88.44358546 47.67935115 90.40339109 48.296875 92.36328125 C48.63041992 93.41813721 48.96396484 94.47299316 49.30761719 95.55981445 C50 98 50 98 50 100 C43.07 100 36.14 100 29 100 C26.8164764 93.16768423 25.01767691 87.1237384 24 80 C14.43 80 4.86 80 -5 80 C-5.33 82.31 -5.66 84.62 -6 87 C-6.46817622 89.13223733 -6.96677406 91.25809303 -7.5 93.375 C-7.88671875 94.93347656 -7.88671875 94.93347656 -8.28125 96.5234375 C-9 99 -9 99 -10 100 C-11.4887186 100.08669432 -12.981445 100.10703494 -14.47265625 100.09765625 C-15.37177734 100.09443359 -16.27089844 100.09121094 -17.19726562 100.08789062 C-18.61555664 100.07532227 -18.61555664 100.07532227 -20.0625 100.0625 C-21.01189453 100.05798828 -21.96128906 100.05347656 -22.93945312 100.04882812 C-25.29303065 100.0370011 -27.64648477 100.02052025 -30 100 C-29.42205114 95.30214544 -28.51222874 90.97814073 -27.08569336 86.4675293 C-26.69115463 85.21058762 -26.29661591 83.95364594 -25.89012146 82.65861511 C-25.45677598 81.29712406 -25.02334774 79.93565934 -24.58984375 78.57421875 C-24.13911071 77.14451144 -23.68889012 75.71464247 -23.239151 74.28462219 C-22.05180568 70.51363145 -20.85809516 66.74468684 -19.6628418 62.97619629 C-18.4782596 59.23844275 -17.29866658 55.49911728 -16.11914062 51.75976562 C-15.88854258 51.02873186 -15.65794453 50.2976981 -15.42035866 49.5445118 C-14.95704292 48.07569288 -14.49374847 46.60686726 -14.03047562 45.13803482 C-13.34283583 42.95870153 -12.65442716 40.77961225 -11.96591187 38.60055542 C-7.90934479 25.75440874 -3.93726899 12.88323973 0 0 Z " fill="#353535" transform="translate(266,97)"/>
<path d="M0 0 C4.54606505 3.47584557 6.50765816 7.21393813 8 12.74609375 C8.41878964 16.39242346 8.44097161 20.00811279 8.44140625 23.67578125 C8.45461411 24.70615509 8.46782196 25.73652893 8.48143005 26.79812622 C8.52209338 30.07247638 8.54391931 33.34654945 8.5625 36.62109375 C8.58641427 39.88841044 8.61475234 43.1554712 8.65428162 46.42263794 C8.67832236 48.44832462 8.69343664 50.47414504 8.69789124 52.49996948 C8.76686988 58.82738754 9.59225953 64.57334279 11 70.74609375 C4.73 70.74609375 -1.54 70.74609375 -8 70.74609375 C-8.33 69.09609375 -8.66 67.44609375 -9 65.74609375 C-9.48726562 66.17921875 -9.97453125 66.61234375 -10.4765625 67.05859375 C-16.39825166 71.70981142 -21.20638981 72.61662379 -28.68359375 72.26171875 C-34.21816699 71.40121973 -37.96568496 69.47243384 -41.33203125 64.9609375 C-45.63501114 57.79944093 -45.64141246 50.89474213 -45 42.74609375 C-43.39113511 36.80708394 -40.06248489 33.22034808 -35 29.74609375 C-27.20234356 25.70286448 -19.56654846 25.56762399 -11 25.74609375 C-11.11382653 23.78707921 -11.24141125 21.82885995 -11.375 19.87109375 C-11.47941406 18.23527344 -11.47941406 18.23527344 -11.5859375 16.56640625 C-11.73253491 13.61562901 -11.73253491 13.61562901 -14 11.74609375 C-18.68209994 11.23794519 -18.68209994 11.23794519 -22.875 12.99609375 C-24.28750433 14.98775526 -24.28750433 14.98775526 -25 18.74609375 C-31.27 18.74609375 -37.54 18.74609375 -44 18.74609375 C-42.71590616 7.1892492 -42.71590616 7.1892492 -37 1.74609375 C-26.10742621 -5.84855545 -11.53714682 -7.23325025 0 0 Z " fill="#353535" transform="translate(628,126.25390625)"/>
<path d="M0 0 C6.27 0 12.54 0 19 0 C19 5.94 19 11.88 19 18 C22.3 18 25.6 18 29 18 C29 22.62 29 27.24 29 32 C25.7 32 22.4 32 19 32 C19.09348657 37.7843867 19.19956981 43.56835245 19.31738281 49.35229492 C19.35568847 51.32032931 19.39053855 53.2884341 19.421875 55.2565918 C19.46749111 58.08407772 19.52549098 60.91107834 19.5859375 63.73828125 C19.59748871 64.61962234 19.60903992 65.50096344 19.62094116 66.40901184 C19.64081085 67.22963608 19.66068054 68.05026031 19.68115234 68.89575195 C19.69447601 69.61745071 19.70779968 70.33914948 19.7215271 71.0827179 C19.90726155 73.32601629 19.90726155 73.32601629 22 76 C23.96361864 76.57748803 23.96361864 76.57748803 26.125 76.6875 C27.40375 76.790625 28.6825 76.89375 30 77 C30 81.95 30 86.9 30 92 C26.36445419 93.2118486 22.97592248 93.2609802 19.1875 93.3125 C18.48818359 93.34150391 17.78886719 93.37050781 17.06835938 93.40039062 C11.93515746 93.46281497 9.04283083 92.41301297 5 89 C3.57421875 87.0703125 3.57421875 87.0703125 2.6875 85.125 C2.22923828 84.16980469 2.22923828 84.16980469 1.76171875 83.1953125 C-0.30052823 77.25181094 -0.13286932 71.21362652 -0.09765625 65.0078125 C-0.0962413 64.06187225 -0.09482635 63.11593201 -0.09336853 62.1413269 C-0.08779484 59.13585171 -0.0752472 56.13045247 -0.0625 53.125 C-0.0574816 51.08073025 -0.05291929 49.03645932 -0.04882812 46.9921875 C-0.03783403 41.99476264 -0.02058757 36.99739417 0 32 C-2.64 32 -5.28 32 -8 32 C-8 27.38 -8 22.76 -8 18 C-5.36 18 -2.72 18 0 18 C0 12.06 0 6.12 0 0 Z " fill="#343434" transform="translate(704,105)"/>
<path d="M0 0 C0 6.27 0 12.54 0 19 C-1.546875 19.103125 -3.09375 19.20625 -4.6875 19.3125 C-8.82098247 19.72233537 -11.68699915 20.32822512 -15 23 C-16.22083085 25.4416617 -16.15730743 27.08690806 -16.20532227 29.81689453 C-16.22526749 30.81778107 -16.24521271 31.8186676 -16.26576233 32.84988403 C-16.29083107 34.47493362 -16.29083107 34.47493362 -16.31640625 36.1328125 C-16.33718735 37.23978485 -16.35796844 38.3467572 -16.37937927 39.48727417 C-16.44490991 43.03311799 -16.50377614 46.57903754 -16.5625 50.125 C-16.60568187 52.5247475 -16.64929605 54.92448727 -16.69335938 57.32421875 C-16.80059492 63.21606767 -16.90185248 69.10799297 -17 75 C-23.27 75 -29.54 75 -36 75 C-36 50.58 -36 26.16 -36 1 C-30.06 1 -24.12 1 -18 1 C-17.67 3.31 -17.34 5.62 -17 8 C-16.59007812 7.50628906 -16.18015625 7.01257813 -15.7578125 6.50390625 C-15.21898437 5.86324219 -14.68015625 5.22257812 -14.125 4.5625 C-13.59132813 3.92441406 -13.05765625 3.28632812 -12.5078125 2.62890625 C-8.66579492 -1.52166715 -6.76386497 0 0 0 Z " fill="#333333" transform="translate(687,122)"/>
<path d="M0 0 C14 8 14 8 19 11 C19.48619889 14.02385971 19.63381274 16.48614147 19.56762695 19.51049805 C19.56835709 20.37900391 19.56908722 21.24750977 19.56983948 22.14233398 C19.56635304 25.01609528 19.52744262 27.88824028 19.48828125 30.76171875 C19.47895687 32.75282404 19.47183899 34.74394079 19.46684265 36.73506165 C19.44774338 41.97803366 19.39861707 47.2203141 19.34332275 52.4630127 C19.29219356 57.81183516 19.26934213 63.16076928 19.24414062 68.50976562 C19.1905014 79.00681443 19.10515296 89.50334973 19 100 C12.35492001 97.341968 6.21399028 93.55085159 0 90 C0 60.3 0 30.6 0 0 Z " fill="#4E7876" transform="translate(48,118)"/>
<path d="M0 0 C10.89 0 21.78 0 33 0 C33 4.95 33 9.9 33 15 C22.11 15 11.22 15 0 15 C0 10.05 0 5.1 0 0 Z " fill="#373737" transform="translate(428,147)"/>
<path d="M0 0 C2.67050222 2.67050222 2.98014818 5.00411843 3.9453125 8.65234375 C4.12005096 9.30828018 4.29478943 9.96421661 4.474823 10.64002991 C4.84275444 12.02698239 5.20734749 13.41482416 5.56884766 14.8034668 C6.1224809 16.92783387 6.68730472 19.04898121 7.25390625 21.16992188 C10 31.56509816 10 31.56509816 10 35 C3.73 35 -2.54 35 -9 35 C-6.47923755 23.14308031 -3.57638127 11.57926724 0 0 Z " fill="#F9F9F9" transform="translate(275,125)"/>
<path d="M0 0 C2.63016161 2.1727422 4.47336894 3.94673788 6 7 C6.40251462 12.23269006 5.80083881 15.53940485 3 20 C-0.75047482 22.50031654 -2.55856266 22.53603554 -7 22 C-9.9375 20.25 -9.9375 20.25 -12 17 C-12.96455725 11.3224435 -13.06580761 6.67945442 -9.9375 1.75 C-6.20745653 -0.47215356 -4.27356156 -0.76313599 0 0 Z " fill="#FAFAFA" transform="translate(558,216)"/>
<path d="M0 0 C0.66 0 1.32 0 2 0 C2.33 49.83 2.66 99.66 3 151 C4.32 151.33 5.64 151.66 7 152 C2.25 155 2.25 155 0 155 C0 103.85 0 52.7 0 0 Z " fill="#368182" transform="translate(189,126)"/>
<path d="M0 0 C1.22589844 0.01353516 1.22589844 0.01353516 2.4765625 0.02734375 C3.41628906 0.04474609 3.41628906 0.04474609 4.375 0.0625 C4.4559313 2.66728883 4.51545434 5.26956653 4.5625 7.875 C4.60020508 8.98198242 4.60020508 8.98198242 4.63867188 10.11132812 C4.7123892 15.54183766 4.7123892 15.54183766 3.109375 18.015625 C0.00425534 19.88988642 -3.0332132 20.26485419 -6.625 20.0625 C-9.125 18.75 -9.125 18.75 -10.625 16.0625 C-11.42736253 11.09788184 -11.40543621 7.33721248 -8.75 3 C-5.67367894 0.19511903 -4.06298342 -0.05804262 0 0 Z " fill="#FBFBFB" transform="translate(612.625,163.9375)"/>
<path d="M0 0 C9 0 9 0 13 2 C14 5.375 14 5.375 14 9 C12.0625 11.4375 12.0625 11.4375 10 13 C10.66 14.11375 11.32 15.2275 12 16.375 C14 19.75 14 19.75 14 22 C12.1875 21.375 12.1875 21.375 10 20 C9.525625 18.989375 9.05125 17.97875 8.5625 16.9375 C7.30607568 13.75579109 7.30607568 13.75579109 4.3125 13.125 C3.1678125 13.063125 3.1678125 13.063125 2 13 C2 15.97 2 18.94 2 22 C1.34 22 0.68 22 0 22 C0 14.74 0 7.48 0 0 Z " fill="#4B4B4B" transform="translate(399,216)"/>
<path d="M0 0 C9 0 9 0 13 2 C14 4.8125 14 4.8125 14 8 C12.0625 10.875 12.0625 10.875 10 13 C10.66 14.11375 11.32 15.2275 12 16.375 C14 19.75 14 19.75 14 22 C12.1875 21.375 12.1875 21.375 10 20 C9.525625 18.989375 9.05125 17.97875 8.5625 16.9375 C7.30607568 13.75579109 7.30607568 13.75579109 4.3125 13.125 C3.1678125 13.063125 3.1678125 13.063125 2 13 C2 15.97 2 18.94 2 22 C1.34 22 0.68 22 0 22 C0 14.74 0 7.48 0 0 Z " fill="#3D3D3D" transform="translate(591,216)"/>
<path d="M0 0 C0.99 0 1.98 0 3 0 C3 2.97 3 5.94 3 9 C6.3 9 9.6 9 13 9 C13 6.03 13 3.06 13 0 C13.99 0 14.98 0 16 0 C16 7.26 16 14.52 16 22 C15.01 22 14.02 22 13 22 C13 18.7 13 15.4 13 12 C9.7 12 6.4 12 3 12 C3 15.3 3 18.6 3 22 C2.01 22 1.02 22 0 22 C0 14.74 0 7.48 0 0 Z " fill="#606060" transform="translate(451,216)"/>
<path d="M0 0 C2.63016161 2.1727422 4.47336894 3.94673788 6 7 C6.40251462 12.23269006 5.80083881 15.53940485 3 20 C-0.75047482 22.50031654 -2.55856266 22.53603554 -7 22 C-9.9375 20.25 -9.9375 20.25 -12 17 C-12.96455725 11.3224435 -13.06580761 6.67945442 -9.9375 1.75 C-6.20745653 -0.47215356 -4.27356156 -0.76313599 0 0 Z M-8.3125 4 C-10.47152087 7.83825932 -10.85124613 10.69165223 -10 15 C-8.56348718 18.08874323 -8.56348718 18.08874323 -6 20 C-2.95691709 20.75015195 -2.95691709 20.75015195 0 20 C2.78449417 17.10386338 3.43143993 14.97540834 3.4375 11 C3.327569 7.61212634 3.17899511 6.27843684 1.3125 3.375 C-2.65234122 1.01752684 -4.77266874 0.93852431 -8.3125 4 Z " fill="#434343" transform="translate(558,216)"/>
<path d="M0 0 C0.99 0 1.98 0 3 0 C5.97 5.28 8.94 10.56 12 16 C12.33 10.72 12.66 5.44 13 0 C13.66 0 14.32 0 15 0 C15 7.26 15 14.52 15 22 C10.38420347 19.69210173 9.07002806 17.21206007 6.75 12.875 C5.5125 10.60625 4.275 8.3375 3 6 C2.67 11.28 2.34 16.56 2 22 C1.34 22 0.68 22 0 22 C0 14.74 0 7.48 0 0 Z " fill="#3B3B3B" transform="translate(482,216)"/>
<path d="M0 0 C3.96 0 7.92 0 12 0 C12 0.66 12 1.32 12 2 C8.7 2 5.4 2 2 2 C2 4.31 2 6.62 2 9 C4.97 9 7.94 9 11 9 C11 9.99 11 10.98 11 12 C8.36 12 5.72 12 3 12 C3 14.64 3 17.28 3 20 C6.3 20 9.6 20 13 20 C13 20.66 13 21.32 13 22 C8.71 22 4.42 22 0 22 C0 14.74 0 7.48 0 0 Z " fill="#515151" transform="translate(381,216)"/>
<path d="M0 0 C0.66 0.99 1.32 1.98 2 3 C1.07767578 2.93039063 1.07767578 2.93039063 0.13671875 2.859375 C-4.77153714 2.51447679 -4.77153714 2.51447679 -9.0625 4.5 C-10.733727 8.95660533 -10.80587074 13.10383354 -8.9375 17.5 C-6.03865362 19.74426817 -3.54614524 19.2676336 0 19 C0.33 17.02 0.66 15.04 1 13 C-0.65 13 -2.3 13 -4 13 C-4 12.34 -4 11.68 -4 11 C-1.69 11 0.62 11 3 11 C3.08096803 12.45742463 3.13917774 13.91612807 3.1875 15.375 C3.23970703 16.59316406 3.23970703 16.59316406 3.29296875 17.8359375 C3.19628906 18.55007812 3.09960938 19.26421875 3 20 C-0.70503565 22.47002376 -3.70486777 22.76877853 -8 22 C-11 20.1875 -11 20.1875 -13 17 C-13.89114647 11.73986995 -13.89911556 7.49852593 -11.125 2.875 C-7.45385267 -0.36424765 -4.85483201 -0.34677371 0 0 Z " fill="#383838" transform="translate(516,216)"/>
<path d="M0 0 C3.96 0 7.92 0 12 0 C12 0.66 12 1.32 12 2 C8.7 2 5.4 2 2 2 C2 4.31 2 6.62 2 9 C4.97 9 7.94 9 11 9 C11 9.99 11 10.98 11 12 C8.03 12 5.06 12 2 12 C2 14.64 2 17.28 2 20 C5.63 20 9.26 20 13 20 C13 20.66 13 21.32 13 22 C8.71 22 4.42 22 0 22 C0 14.74 0 7.48 0 0 Z " fill="#393939" transform="translate(346,216)"/>
<path d="M0 0 C3.5 0.4375 3.5 0.4375 5.4375 1.9375 C5.788125 2.4325 6.13875 2.9275 6.5 3.4375 C3.5 3.4375 0.5 3.4375 -2.5 3.4375 C-2.83 5.0875 -3.16 6.7375 -3.5 8.4375 C-1.89125 8.80875 -1.89125 8.80875 -0.25 9.1875 C3.54492632 10.45247544 5.29423493 11.1288524 7.5 14.4375 C7.35205998 18.1360004 7.14194427 19.79555573 4.5 22.4375 C-2.80434783 22.90126812 -2.80434783 22.90126812 -6.5 20.4375 C-6.5 19.7775 -6.5 19.1175 -6.5 18.4375 C-5.51 18.7675 -4.52 19.0975 -3.5 19.4375 C-1.16700175 19.47704234 1.16708189 19.48151732 3.5 19.4375 C3.5 17.7875 3.5 16.1375 3.5 14.4375 C2.86191406 14.13457031 2.22382812 13.83164063 1.56640625 13.51953125 C0.74011719 13.10058594 -0.08617187 12.68164062 -0.9375 12.25 C-1.76121094 11.84394531 -2.58492187 11.43789062 -3.43359375 11.01953125 C-5.5 9.4375 -5.5 9.4375 -6.34765625 6.90625 C-6.5 4.4375 -6.5 4.4375 -5.5 2.125 C-3.5 0.4375 -3.5 0.4375 0 0 Z " fill="#454545" transform="translate(615.5,215.5625)"/>
<path d="M0 0 C0.66 0 1.32 0 2 0 C2.07347656 1.68029297 2.07347656 1.68029297 2.1484375 3.39453125 C2.22347856 4.86721203 2.29902582 6.33986707 2.375 7.8125 C2.4059375 8.55048828 2.436875 9.28847656 2.46875 10.04882812 C2.67346148 13.81893115 2.86433827 15.79650741 5 19 C8.08365871 19.2502157 8.08365871 19.2502157 11 19 C12.6498007 15.70039859 12.38258361 12.00872116 12.5625 8.375 C12.60568359 7.57320312 12.64886719 6.77140625 12.69335938 5.9453125 C12.79951457 3.9637489 12.90026855 1.98189729 13 0 C13.66 0 14.32 0 15 0 C15.10806144 2.91765891 15.18732877 5.83131125 15.25 8.75 C15.30027344 9.9875 15.30027344 9.9875 15.3515625 11.25 C15.45015812 17.3629284 15.45015812 17.3629284 13.203125 20.54296875 C9.94393465 22.6984262 7.8130821 22.61281677 4 22 C1.64298439 19.87701431 0.18828685 18.19262864 -0.31640625 14.99584961 C-0.39330599 12.71339454 -0.34944251 10.46894073 -0.25 8.1875 C-0.23195313 7.39923828 -0.21390625 6.61097656 -0.1953125 5.79882812 C-0.14844048 3.86535739 -0.0767041 1.93251715 0 0 Z " fill="#373737" transform="translate(569,216)"/>
<path d="M0 0 C0.99 0.33 1.98 0.66 3 1 C3.79956055 2.67407227 3.79956055 2.67407227 4.38671875 4.81640625 C4.58225342 5.50420166 4.77778809 6.19199707 4.97924805 6.90063477 C5.21297119 7.77905029 5.44669434 8.65746582 5.6875 9.5625 C6.450625 12.346875 7.21375 15.13125 8 18 C9.98 12.06 11.96 6.12 14 0 C14.66 0 15.32 0 16 0 C14.7205886 7.60913098 12.57243067 14.73225897 10 22 C8.10644531 21.76147461 8.10644531 21.76147461 6 21 C4.99511719 19.17407227 4.99511719 19.17407227 4.296875 16.81640625 C4.0390625 15.97142578 3.78125 15.12644531 3.515625 14.25585938 C3.26296875 13.36705078 3.0103125 12.47824219 2.75 11.5625 C2.481875 10.67755859 2.21375 9.79261719 1.9375 8.88085938 C0 2.3912229 0 2.3912229 0 0 Z " fill="#484848" transform="translate(361,216)"/>
<path d="M0 0 C0.99 0 1.98 0 3 0 C4.65 3.3 6.3 6.6 8 10 C9.65 6.7 11.3 3.4 13 0 C13.66 0 14.32 0 15 0 C14.03365473 3.12203856 13.0562801 5.90094703 11.4375 8.75 C9.50963842 13.10864357 9.27047527 17.28067279 9 22 C8.01 22 7.02 22 6 22 C5.98582031 21.39414063 5.97164063 20.78828125 5.95703125 20.1640625 C5.60196142 13.92634932 4.10143026 9.47904795 1.05859375 4.03125 C0 2 0 2 0 0 Z " fill="#4A4A4A" transform="translate(415,216)"/>
<path d="M0 0 C0.99 0 1.98 0 3 0 C3.67408308 1.26691507 4.33900497 2.53870749 5 3.8125 C5.556875 4.87404297 5.556875 4.87404297 6.125 5.95703125 C7 8 7 8 7 11 C7.66 11 8.32 11 9 11 C9.20496094 10.37351563 9.40992188 9.74703125 9.62109375 9.1015625 C9.89050781 8.28429687 10.15992188 7.46703125 10.4375 6.625 C10.70433594 5.81289062 10.97117187 5.00078125 11.24609375 4.1640625 C12 2 12 2 13 0 C13.99 0.33 14.98 0.66 16 1 C15.57847656 1.76183594 15.15695312 2.52367187 14.72265625 3.30859375 C11.32174643 9.71830849 9.24233649 14.7299052 9 22 C8.34 22 7.68 22 7 22 C6.95875 20.783125 6.9175 19.56625 6.875 18.3125 C6.18145234 11.63310251 2.99187647 5.91970665 0 0 Z " fill="#383838" transform="translate(528,216)"/>
<path d="M0 0 C0.99 0 1.98 0 3 0 C3 7.26 3 14.52 3 22 C2.01 22 1.02 22 0 22 C0 18.37 0 14.74 0 11 C-3.3 11 -6.6 11 -10 11 C-10 10.67 -10 10.34 -10 10 C-6.7 10 -3.4 10 0 10 C0 6.7 0 3.4 0 0 Z " fill="#4B4B4B" transform="translate(464,216)"/>
<path d="M0 0 C3.375 -0.125 3.375 -0.125 7 0 C9 2 9 2 9.3125 4.5 C9.1578125 5.7375 9.1578125 5.7375 9 7 C5.5647952 9.29013653 4.014669 9.17842973 0 9 C0 6.03 0 3.06 0 0 Z " fill="#F6F6F6" transform="translate(593,218)"/>
<path d="M0 0 C3.375 -0.125 3.375 -0.125 7 0 C9 2 9 2 9.3125 4.5 C9.1578125 5.7375 9.1578125 5.7375 9 7 C5.5647952 9.29013653 4.014669 9.17842973 0 9 C0 6.03 0 3.06 0 0 Z " fill="#F5F5F5" transform="translate(401,218)"/>
<path d="M0 0 C5.28 0 10.56 0 16 0 C16 0.66 16 1.32 16 2 C13.69 2 11.38 2 9 2 C9 8.6 9 15.2 9 22 C8.34 22 7.68 22 7 22 C7 15.4 7 8.8 7 2 C4.69 2 2.38 2 0 2 C0 1.34 0 0.68 0 0 Z " fill="#353535" transform="translate(431,216)"/>
<path d="M0 0 C0.99 0 1.98 0 3 0 C3 7.26 3 14.52 3 22 C2.01 22 1.02 22 0 22 C0 14.74 0 7.48 0 0 Z " fill="#545454" transform="translate(473,216)"/>
<path d="M0 0 C2.97 0 5.94 0 9 0 C9 0.66 9 1.32 9 2 C6.69 2 4.38 2 2 2 C2 8.6 2 15.2 2 22 C1.34 22 0.68 22 0 22 C0 14.74 0 7.48 0 0 Z " fill="#363636" transform="translate(399,216)"/>
<path d="M0 0 C3.96 0 7.92 0 12 0 C12 0.66 12 1.32 12 2 C8.7 2 5.4 2 2 2 C2 4.31 2 6.62 2 9 C4.97 9 7.94 9 11 9 C11 9.33 11 9.66 11 10 C7.37 10.33 3.74 10.66 0 11 C0 7.37 0 3.74 0 0 Z " fill="#454545" transform="translate(381,216)"/>
<path d="M0 0 C0.99 0.33 1.98 0.66 3 1 C2.505 1.7425 2.505 1.7425 2 2.5 C0.60345138 5.99137156 0.49670007 9.31642801 1 13 C2.3509288 15.9254644 2.3509288 15.9254644 4 18 C3.01 18.33 2.02 18.66 1 19 C-2.04049059 15.67070292 -2.38427311 13.39295352 -2.3125 8.9375 C-2.30863281 7.89464844 -2.30476562 6.85179687 -2.30078125 5.77734375 C-2 3 -2 3 0 0 Z " fill="#444444" transform="translate(548,218)"/>
<path d="M0 0 C2.31 0 4.62 0 7 0 C7.08096803 1.45742463 7.13917774 2.91612807 7.1875 4.375 C7.22230469 5.18710938 7.25710938 5.99921875 7.29296875 6.8359375 C7.19628906 7.55007812 7.09960938 8.26421875 7 9 C3.5647952 11.29013653 2.014669 11.17842973 -2 11 C-2 10.34 -2 9.68 -2 9 C-0.02 8.67 1.96 8.34 4 8 C4.33 6.02 4.66 4.04 5 2 C3.35 2 1.7 2 0 2 C0 1.34 0 0.68 0 0 Z " fill="#363636" transform="translate(512,227)"/>
<path d="M0 0 C0.66 0 1.32 0 2 0 C2 7.26 2 14.52 2 22 C1.01 21.67 0.02 21.34 -1 21 C-1 20.34 -1 19.68 -1 19 C-0.34 19 0.32 19 1 19 C0.83628906 18.15179688 0.67257812 17.30359375 0.50390625 16.4296875 C-0.00948445 12.9354469 -0.09850739 9.65372426 -0.0625 6.125 C-0.05347656 4.97257813 -0.04445313 3.82015625 -0.03515625 2.6328125 C-0.02355469 1.76398438 -0.01195312 0.89515625 0 0 Z " fill="#383838" transform="translate(495,216)"/>
<path d="M0 0 C3.96 0 7.92 0 12 0 C12 0.66 12 1.32 12 2 C8.7 2 5.4 2 2 2 C2 4.31 2 6.62 2 9 C1.34 9 0.68 9 0 9 C0 6.03 0 3.06 0 0 Z " fill="#363636" transform="translate(346,216)"/>
<path d="M0 0 C0.33 0.99 0.66 1.98 1 3 C-0.4375 5.1875 -0.4375 5.1875 -2 7 C-3.32 6.67 -4.64 6.34 -6 6 C-6 6.66 -6 7.32 -6 8 C-7.98 8.33 -9.96 8.66 -12 9 C-10.67708855 5.03126566 -9.08850262 4.70094963 -5.4375 2.8125 C-4.42558594 2.28269531 -3.41367188 1.75289063 -2.37109375 1.20703125 C-1.58863281 0.80871094 -0.80617188 0.41039063 0 0 Z " fill="#5A7D79" transform="translate(69,87)"/>
<path d="M0 0 C0.66 0 1.32 0 2 0 C1.25 5.75 1.25 5.75 -1 8 C-8.30434783 8.46376812 -8.30434783 8.46376812 -12 6 C-12 5.34 -12 4.68 -12 4 C-11.01 4.33 -10.02 4.66 -9 5 C-6.66700175 5.03954234 -4.33291811 5.04401732 -2 5 C-1.34 3.35 -0.68 1.7 0 0 Z " fill="#3B3B3B" transform="translate(621,230)"/>
<path d="M0 0 C0.33 0 0.66 0 1 0 C0.51834131 6.38197767 0.51834131 6.38197767 -1.625 8.9375 C-4.83037505 10.37148358 -7.53227365 10.20006114 -11 10 C-11.33 9.34 -11.66 8.68 -12 8 C-10.7625 7.979375 -9.525 7.95875 -8.25 7.9375 C-5.5415484 7.63015797 -4.39586737 7.45241985 -2.578125 5.375 C-1.34385415 3.22998537 -1.34385415 3.22998537 0 0 Z " fill="#383838" transform="translate(562,228)"/>
<path d="M0 0 C3.63 0 7.26 0 11 0 C11 0.99 11 1.98 11 3 C8.03 3 5.06 3 2 3 C1.67 3.66 1.34 4.32 1 5 C0.67 3.35 0.34 1.7 0 0 Z " fill="#5E5E5E" transform="translate(346,225)"/>
<path d="M0 0 C2.3125 0.8125 2.3125 0.8125 4 2 C3.34 2 2.68 2 2 2 C2.33 3.98 2.66 5.96 3 8 C-0.37503669 6.8141763 -2.64722731 5.72426311 -5 3 C-2.75 1.375 -2.75 1.375 0 0 Z " fill="#1D7778" transform="translate(97,66)"/>
<path d="M0 0 C3.1875 -0.5 3.1875 -0.5 7 0 C9.55351065 2.76841006 12 6.13887863 12 10 C10.1875 9.375 10.1875 9.375 8 8 C7.525625 6.989375 7.05125 5.97875 6.5625 4.9375 C5.30607568 1.75579109 5.30607568 1.75579109 2.3125 1.125 C1.1678125 1.063125 1.1678125 1.063125 0 1 C0 0.67 0 0.34 0 0 Z " fill="#494949" transform="translate(593,228)"/>
<path d="M0 0 C2.97 0.99 5.94 1.98 9 3 C9 3.66 9 4.32 9 5 C10.175625 5.4640625 10.175625 5.4640625 11.375 5.9375 C14 7 14 7 16 8 C15.67 8.66 15.34 9.32 15 10 C12.49732313 8.52520827 9.99783579 7.04544936 7.5 5.5625 C6.78457031 5.14162109 6.06914062 4.72074219 5.33203125 4.28710938 C3.53787459 3.21915898 1.76678262 2.11265239 0 1 C0 0.67 0 0.34 0 0 Z " fill="#257475" transform="translate(154,105)"/>
<path d="M0 0 C0.99 0.66 1.98 1.32 3 2 C2.42507812 2.28488281 1.85015625 2.56976563 1.2578125 2.86328125 C-0.19344762 3.59393297 -1.637031 4.34015051 -3.0703125 5.10546875 C-3.74835938 5.46253906 -4.42640625 5.81960937 -5.125 6.1875 C-5.80820313 6.55230469 -6.49140625 6.91710938 -7.1953125 7.29296875 C-8.08863281 7.64294922 -8.08863281 7.64294922 -9 8 C-9.66 7.67 -10.32 7.34 -11 7 C-7.37 4.69 -3.74 2.38 0 0 Z " fill="#257978" transform="translate(116,54)"/>
<path d="M0 0 C3.73487777 0.4979837 5.81237635 0.87491756 9 3 C8.67 4.98 8.34 6.96 8 9 C7.79375 8.401875 7.5875 7.80375 7.375 7.1875 C5.49073918 4.18981233 3.18867916 3.38638224 0 2 C0 1.34 0 0.68 0 0 Z " fill="#454545" transform="translate(613,225)"/>
<path d="M0 0 C1.50559539 1.96382007 2.89131683 3.78263366 4 6 C4.66 5.01 5.32 4.02 6 3 C6 4.98 6 6.96 6 9 C5.01 9.33 4.02 9.66 3 10 C2.30289269 8.71349294 1.61757124 7.42059335 0.9375 6.125 C0.36322266 5.04605469 0.36322266 5.04605469 -0.22265625 3.9453125 C-0.47917969 3.30335938 -0.73570312 2.66140625 -1 2 C-0.67 1.34 -0.34 0.68 0 0 Z " fill="#4E4E4E" transform="translate(490,226)"/>
<path d="M0 0 C3.71368887 1.23789629 4.77354181 2.85224877 7 6 C7 6.66 7 7.32 7 8 C3.34683329 6.75023244 2.21934164 6.32901247 0 3 C0 2.01 0 1.02 0 0 Z " fill="#474747" transform="translate(503,230)"/>
<path d="M0 0 C0.721875 0.144375 1.44375 0.28875 2.1875 0.4375 C3.5796875 0.7159375 3.5796875 0.7159375 5 1 C6.66666667 1.33333333 8.33333333 1.66666667 10 2 C10.33 3.32 10.66 4.64 11 6 C11.66 6 12.32 6 13 6 C12.67 6.66 12.34 7.32 12 8 C9.99743426 6.85865673 7.99800203 5.71181367 6 4.5625 C4.88625 3.92441406 3.7725 3.28632812 2.625 2.62890625 C1.75875 2.09136719 0.8925 1.55382812 0 1 C0 0.67 0 0.34 0 0 Z " fill="#207876" transform="translate(176,118)"/>
<path d="M0 0 C2.631724 2.45627573 4.81527263 4.55352037 6 8 C5.625 10.25 5.625 10.25 5 12 C4.67 10.35 4.34 8.7 4 7 C3.01 7 2.02 7 1 7 C0.67 4.69 0.34 2.38 0 0 Z " fill="#565656" transform="translate(404,127)"/>
<path d="M0 0 C0.99 0 1.98 0 3 0 C4.32 2.97 5.64 5.94 7 9 C6.01 9 5.02 9 4 9 C2.68 6.03 1.36 3.06 0 0 Z " fill="#484848" transform="translate(528,216)"/>
<path d="M0 0 C0.99 0.33 1.98 0.66 3 1 C1.68 3.64 0.36 6.28 -1 9 C-1.66 8.67 -2.32 8.34 -3 8 C-1.125 2.25 -1.125 2.25 0 0 Z " fill="#4A4A4A" transform="translate(541,216)"/>
<path d="M0 0 C0.66 0 1.32 0 2 0 C3.74627478 2.61941217 4.38722388 4.03824877 5 7 C3.68 6.67 2.36 6.34 1 6 C0.67 4.02 0.34 2.04 0 0 Z " fill="#3D3D3D" transform="translate(366,231)"/>
<path d="M0 0 C0.66 0 1.32 0 2 0 C1.34 2.97 0.68 5.94 0 9 C-0.66 9 -1.32 9 -2 9 C-1.125 2.25 -1.125 2.25 0 0 Z " fill="#404040" transform="translate(375,216)"/>
<path d="M0 0 C1.33332095 2.6666419 0.67102033 4.16680303 0 7 C-1.65 6.01 -3.3 5.02 -5 4 C-3.35 2.68 -1.7 1.36 0 0 Z " fill="#5F807C" transform="translate(53,96)"/>
<path d="M0 0 C5.53846154 -0.36923077 5.53846154 -0.36923077 7.875 1.5 C8.24625 1.995 8.6175 2.49 9 3 C5.88772805 3 3.05847848 2.54372951 0 2 C0 1.34 0 0.68 0 0 Z " fill="#383838" transform="translate(613,216)"/>
<path d="M0 0 C1.98 0.99 3.96 1.98 6 3 C4 5 4 5 0.875 5.125 C-0.548125 5.063125 -0.548125 5.063125 -2 5 C-1.34 4.34 -0.68 3.68 0 3 C0 2.01 0 1.02 0 0 Z " fill="#597D7A" transform="translate(136,121)"/>
<path d="M0 0 C2.64 0.33 5.28 0.66 8 1 C8.33 2.32 8.66 3.64 9 5 C5.22454612 3.90931332 2.52956528 3.0916909 0 0 Z " fill="#1B7474" transform="translate(102,75)"/>
<path d="M0 0 C2.31 0 4.62 0 7 0 C7 0.66 7 1.32 7 2 C4.36 2.33 1.72 2.66 -1 3 C-0.67 2.01 -0.34 1.02 0 0 Z " fill="#3B3B3B" transform="translate(551,216)"/>
<path d="M0 0 C3.96 1.98 3.96 1.98 8 4 C3.70600835 5.07349791 2.80504787 4.79682816 -1 3 C-0.67 2.01 -0.34 1.02 0 0 Z " fill="#62817F" transform="translate(148,128)"/>
<path d="M0 0 C1.875 0.3125 1.875 0.3125 4 1 C4.66 1.99 5.32 2.98 6 4 C5.01 4.495 5.01 4.495 4 5 C1.875 4.0625 1.875 4.0625 0 3 C0 2.01 0 1.02 0 0 Z " fill="#5A7B78" transform="translate(90,122)"/>
</svg>
